<svg width="800" height="436" viewBox="0 0 800 436" fill="none" xmlns="http://www.w3.org/2000/svg">
<path d="M392 8.13341C387.2 8.53341 382.4 9.33341 381.467 9.86674C380.533 10.5334 378.667 13.6001 377.333 16.8001C375.6 20.6667 374 22.6667 372.267 22.6667C370.933 22.6667 366.267 23.8667 361.867 25.2001C357.6 26.6667 349.467 29.0667 344 30.8001C326.267 36.0001 260.933 71.6001 215.467 100.667C213.2 102.133 209.333 104.533 206.933 106C204.4 107.467 199.2 110.667 195.2 113.067L187.867 117.6L194.533 129.733C198.133 136.533 201.867 142.133 202.933 142.4C204 142.667 208.8 141.067 213.467 138.933C234.4 129.2 288.933 108 289.867 109.067C290.267 109.467 290.667 109.067 290.667 108.267C290.667 107.333 291.333 106.667 292.133 106.667C293.067 106.667 299.467 104.667 306.533 102.133C313.6 99.6001 320.8 97.2001 322.533 96.6667L325.733 95.7334L324.933 119.467C321.467 209.333 318 297.067 315.333 357.467C314.267 381.467 313.333 404.8 313.333 409.6V418.267L320.4 419.733C333.467 422.667 362 426.533 381.6 428C407.467 429.867 445.467 426.933 476.4 420.4L486.667 418.267V410.133C486.667 405.6 485.733 381.333 484.667 356C483.6 330.667 481.467 278.533 480 240C478.533 201.467 476.667 153.6 475.867 133.6C475.067 113.467 474.8 96.8001 475.067 96.4001C476.267 95.3334 524.133 112.4 539.733 119.467C543.6 121.2 547.2 122.667 547.867 122.667C548.533 122.667 552.533 124.267 556.8 126.133C561.2 128 567.733 130.8 571.333 132.267C575.067 133.733 581.2 136.533 585.067 138.267C595.867 143.2 598.267 142.933 601.867 136.667C608.667 124.667 612 118.533 612 118C612 117.333 609.067 115.467 565.333 88.9334C529.333 67.0667 520.267 62.0001 486 43.7334C472.533 36.5334 458.8 31.3334 433.6 23.8667C425.067 21.4667 423.733 20.6667 423.2 17.6001C421.733 10.6667 419.467 9.06674 409.733 8.13341C404.8 7.73341 396.8 7.73341 392 8.13341ZM413.867 10.9334C417.333 10.8001 420.8 14.6667 421.733 19.7334C422.533 23.3334 422 24.6667 418.133 28.6667C415.6 31.2001 412.933 33.3334 412 33.3334C411.2 33.3334 410.8 33.7334 411.067 34.2667C412.4 36.4001 403.6 35.8667 402 33.7334C401.067 32.5334 399.733 32.0001 398.8 32.5334C397.6 33.3334 397.6 34.0001 398.667 35.3334C399.867 36.8001 399.6 36.9334 397.467 36.4001C395.467 35.8667 394.8 34.8001 395.067 31.8667C395.2 29.7334 396 28.0001 396.667 27.8667C409.2 26.4001 420 21.0667 420 16.4001C420 14.4001 419.733 14.5334 418.133 16.6667C416.533 18.9334 414.667 19.0667 400.533 18.8001C384.133 18.5334 380.4 17.3334 382.133 12.9334C383.067 10.4001 390.933 9.46674 403.333 10.4001C407.733 10.6667 412.4 10.9334 413.867 10.9334ZM382 18.5334C382.8 20.9334 389.867 25.2001 393.6 25.4667C394.533 25.4667 394.667 25.8667 394 26.1334C393.2 26.4001 392.8 28.8001 393.067 31.4667L393.6 36.2667L388.267 33.4667C385.2 31.8667 382.133 29.4667 381.333 27.8667C380.133 25.8667 379.333 25.4667 378.133 26.5334C377.2 27.3334 370.133 29.8667 362.533 32.1334C354.933 34.4001 346.133 37.0667 342.933 38.0001C338 39.6001 337.067 39.6001 336.4 37.8667C336 36.8001 335.867 35.7334 336.133 35.4667C337.733 34.4001 370.667 24.9334 374 24.6667C377.467 24.5334 378 23.8667 378.4 20.2667C378.933 15.4667 380.667 14.6667 382 18.5334ZM413.333 20.5334C413.333 21.8667 403.733 25.3334 400 25.3334C396.667 25.3334 386.667 22.0001 386.667 20.8001C386.667 20.5334 392.667 20.2667 400 20.1334C407.333 20.0001 413.333 20.2667 413.333 20.5334ZM444.133 29.3334C454.4 32.2667 463.067 34.6667 463.467 34.6667C463.733 34.6667 464 35.8667 464 37.4667C464 39.2001 463.333 40.0001 462.4 39.4667C461.467 39.2001 458.267 38.1334 455.333 37.3334C442.267 33.4667 423.333 27.6001 422.8 27.2001C422.267 26.6667 423.867 24.0001 424.8 24.0001C425.2 24.0001 433.867 26.4001 444.133 29.3334ZM380.533 31.4667C380.933 32.5334 384 34.6667 387.333 36.1334L393.333 38.8001V101.333V163.867L396.8 166.533C400.133 169.2 400.4 169.2 403.467 166.933L406.533 164.667L406.667 101.733V38.9334L410.667 37.6001C412.8 36.8001 416.267 34.5334 418.133 32.6667L421.733 29.0667L432.533 32.4001C438.533 34.2667 447.733 37.0667 453.067 38.8001C458.267 40.4001 462.667 42.1334 462.667 42.5334C462.667 42.9334 461.733 48.4001 460.667 54.6667C456.667 77.3334 458.8 89.0667 467.733 93.3334C472.667 95.7334 472.933 96.8001 474 134.667C474.4 148.933 475.6 183.2 476.667 210.667C477.733 238.133 479.2 276.8 480 296.667C480.8 316.4 482 344.667 482.667 359.2C483.467 373.733 484 390 484 395.333V404.933L479.733 405.867C428.667 416.667 370.267 416.933 322.8 406.4L315.6 404.8L316.533 382.8C317.067 370.667 318.267 339.333 319.333 313.333C320.4 287.333 322.267 242.267 323.333 213.333C324.4 184.4 325.867 147.467 326.667 131.333C327.333 115.2 328 100.533 328 98.6667C328 96.1334 329.067 94.9334 332 93.7334C338.667 91.2001 341.333 85.0667 341.2 72.0001C341.2 65.7334 340.4 56.4001 339.467 51.2001L337.733 41.6001L342.533 40.1334C350.933 37.7334 354 36.8001 354.667 36.6667C355.067 36.6667 357.6 35.7334 360.267 34.8001C363.067 33.8667 365.867 33.4667 366.533 33.8667C367.2 34.4001 368 34.1334 368.267 33.3334C368.533 32.5334 370.533 31.8667 372.933 31.6001C375.2 31.4667 376.8 30.9334 376.4 30.2667C376.133 29.7334 376.667 29.3334 377.733 29.3334C378.8 29.3334 380.133 30.2667 380.533 31.4667ZM335.867 41.6001C336.667 44.8001 338 54.2667 338.933 62.8001C340.4 76.6667 340.267 78.9334 338.133 84.4001C336.267 89.3334 334.933 90.8001 330.533 92.5334C327.6 93.7334 324.533 94.6667 323.467 94.6667C318.267 94.6667 260.933 116 238.933 126.133C235.067 127.867 231.467 129.333 230.933 129.333C230.267 129.333 227.467 130.533 224.533 131.867C221.733 133.333 219.067 134.267 218.8 134C217.6 132.8 220.667 130.667 226.667 128.667C230.4 127.467 233.333 125.867 233.333 125.2C233.333 124.267 221.867 128 218.533 130.133C218 130.4 217.333 129.733 216.8 128.667C216.4 127.467 217.2 126.133 218.667 125.333C220.133 124.533 221.333 124.4 221.333 124.933C221.333 125.467 221.867 125.333 222.4 124.667C224 122.4 234.267 117.333 235.2 118.267C235.6 118.667 236 118.533 236 117.733C236 116.933 237.733 115.6 240 114.667C242.133 113.733 243.733 112.533 243.333 112C242.933 111.467 236.533 114.133 229.067 118.133C216.133 124.933 213.467 125.467 213.333 121.067C213.333 120.533 211.867 117.867 210 115.2C208.133 112.533 206.667 109.867 206.667 109.467C206.667 108.933 208.667 107.467 211.067 106.133C213.333 104.667 218.667 101.333 222.667 98.6667C226.667 96.0001 230.667 93.4667 231.333 93.2001C232.133 92.9334 240.933 87.7334 250.933 81.7334C260.933 75.7334 281.067 64.2667 295.6 56.5334C310.133 48.6667 324.4 40.9334 327.333 39.2001C330.267 37.6001 333.067 36.2667 333.467 36.1334C334 36.0001 335.067 38.5334 335.867 41.6001ZM493.2 50.1334C520.267 64.6667 524.133 66.8001 532 71.4667C534.533 72.9334 541.2 76.8001 546.667 80.0001C566.8 91.6001 593.333 108.4 593.333 109.467C593.333 111.6 590.267 117.333 589.067 117.333C588.533 117.333 588 118.133 588 119.067C588 120 587.2 122 586.133 123.333C584.8 125.333 583.867 125.6 582.533 124.4C579.067 121.733 556.933 110.667 556.267 111.333C555.333 112.267 554.933 112 569.333 119.333C583.6 126.533 584.667 127.2 583.467 129.2C582.8 130.133 580.133 129.733 575.2 127.867C571.067 126.267 567.6 125.333 567.2 125.733C566.8 126 569.733 127.467 573.467 128.8C577.333 130.267 580.667 132.133 581.067 133.067C581.467 134.4 581.067 134.533 579.2 133.6C575.733 131.733 569.867 129.2 552 122C543.6 118.667 534.267 114.8 531.333 113.467C528.4 112.133 521.067 109.333 514.933 107.333C507.333 104.667 504.533 103.2 505.6 102.267C506.8 101.467 506.533 101.333 504.933 101.867C503.467 102.267 496.933 100.933 490.267 98.6667C483.467 96.5334 475.333 94.0001 472 93.0667C460.933 89.8667 458.667 80.4001 462.667 53.7334C463.733 46.9334 464.933 41.7334 465.333 42.0001C465.867 42.4001 466 41.0667 465.6 39.3334C465.333 37.4667 465.467 36.0001 466 36.0001C466.533 36.0001 478.8 42.2667 493.2 50.1334ZM404 93.3334V148H400.667H397.333V93.3334V38.6667H400.667H404V93.3334ZM395.6 121.733C395.467 136.533 395.333 124 395.333 94.0001C395.333 63.8667 395.467 51.8667 395.6 67.0667C395.867 82.4001 395.867 106.933 395.6 121.733ZM211.467 122.133C217.6 133.467 218.4 136 215.6 136C214.667 136 211.467 137.2 208.667 138.533L203.467 141.067L197.2 129.6L190.933 118L197.067 114.4C200.533 112.4 203.867 110.933 204.533 111.067C205.333 111.333 208.4 116.267 211.467 122.133ZM603.333 114.267C606.667 116.4 609.2 118.267 609.067 118.667C603.467 130.133 597.733 140 596.533 140C594.667 140 582.667 134.8 582.667 134C582.667 132.533 595.467 110.667 596.267 110.667C596.8 110.667 600 112.267 603.333 114.267ZM395.6 160.267C395.333 162.667 395.067 161.067 395.067 156.667C395.067 152.267 395.333 150.267 395.6 152.267C395.867 154.267 395.867 157.867 395.6 160.267ZM403.733 156.933C403.333 163.6 402.933 164.667 400.667 164.667C398.4 164.667 398 163.6 397.6 156.933C397.2 149.467 397.333 149.333 400.667 149.333C404 149.333 404.133 149.467 403.733 156.933ZM331.867 410.133C373.6 417.867 427.333 417.867 468.133 410.133C473.733 409.2 479.6 407.867 481.067 407.467C483.2 406.667 483.733 407.333 484.4 410.933C484.8 413.333 484.667 415.733 484.133 416.267C483.2 417.467 466.533 420.4 443.333 423.467C421.867 426.4 379.467 426.8 361.333 424.267C339.867 421.2 316.667 417.067 315.867 416.133C315.333 415.733 315.2 413.333 315.6 410.933C316.267 407.333 316.8 406.667 318.933 407.467C320.4 407.867 326.267 409.067 331.867 410.133Z" fill="black"/>
<path d="M398.667 29.8669C399.6 30.8002 400.4 30.8002 401.333 29.8669C402.133 29.0669 401.733 28.5336 400 28.5336C398.267 28.5336 397.867 29.0669 398.667 29.8669Z" fill="black"/>
<path d="M205.867 129.6C206.267 130.934 207.067 132.8 207.467 133.867C207.867 135.067 207.067 136.134 205.333 136.667C203.733 137.2 202.667 137.867 203.067 138.134C203.333 138.534 206.533 137.467 210 136C213.467 134.534 216 132.934 215.6 132.534C215.2 132.134 213.6 132.4 212.133 133.334C210.533 134.134 209.333 134.267 209.333 133.6C209.333 133.067 208.4 131.334 207.2 129.867C205.467 127.734 205.2 127.734 205.867 129.6Z" fill="black"/>
<path d="M592.267 131.2C590.934 134.267 590.267 134.533 587.867 133.333C586.4 132.4 584.934 132 584.534 132.267C584.267 132.533 586.934 134.133 590.4 135.733C593.867 137.467 595.734 138 594.4 136.933C592.8 135.733 592.534 134.667 593.6 132.933C594.267 131.6 594.667 129.867 594.4 129.067C594.134 128.4 593.2 129.333 592.267 131.2Z" fill="black"/>
</svg>
