<svg width="800" height="436" viewBox="0 0 800 436" fill="none" xmlns="http://www.w3.org/2000/svg">
<path d="M382.933 9.33331C381.2 10.1333 378.8 13.2 377.333 16.6666C375.733 20.4 373.867 22.6666 372.533 22.6666C371.333 22.6666 365.733 24.1333 360.133 25.8666C354.533 27.6 346.4 30.1333 342 31.4666C328.133 35.4666 269.467 66.9333 235.333 88.6666C231.733 90.9333 227.733 93.2 226.667 93.7333C225.6 94.2666 221.067 97.0666 216.667 100C212.267 102.8 204 107.867 198.267 111.333L187.867 117.467L194.267 129.467C197.733 136.133 201.333 141.867 202.267 142.267C203.2 142.533 208.8 140.8 214.933 138.133C257.467 120.133 287.067 108.533 289.733 109.067C290.267 109.2 290.667 108.8 290.667 108.133C290.667 107.467 292 106.667 293.733 106.267C295.333 106 302 103.733 308.4 101.333C314.8 99.0666 320.933 97.4666 321.867 97.7333C323.733 98.5333 328.4 116 330.667 130.667C332.4 141.867 332.4 160.4 330.667 179.867C326.267 229.867 325.2 241.867 324 253.333C323.333 260.267 321.2 284 319.333 306C317.467 328 315.467 351.733 314.667 358.667C312.267 381.867 309.333 411.6 309.333 413.867C309.333 416.533 313.067 418 325.733 420.667C357.867 427.067 392.667 429.867 417.733 428C448.4 425.6 484.4 420 488.8 416.667C491.467 414.8 492 423.2 483.333 330C480.8 302.133 478 272.4 477.333 264C476.533 255.6 474.8 236 473.333 220.667C468 162.133 467.467 153.2 469.2 137.467C470.667 124.8 473.2 112 476.8 100.267C477.2 98.6666 478.4 97.3333 479.2 97.3333C482.4 97.3333 535.333 116.933 551.333 124C552.8 124.667 559.467 127.333 566 130C572.667 132.667 582.4 136.8 587.733 139.067L597.6 143.2L600.133 140C601.467 138.133 602.667 136.267 602.667 135.733C602.667 135.333 604.8 131.2 607.467 126.533L612.133 118.133L608.533 115.333C606.533 113.867 602.267 111.2 599.2 109.333C596 107.467 580.933 98.4 565.733 89.2C550.533 79.8666 530.8 68.4 522 63.4666C513.2 58.5333 504.533 53.7333 502.667 52.6666C500.8 51.6 491.867 46.8 482.667 42.2666C467.067 34.2666 457.733 30.8 433.733 24C424.267 21.3333 424 21.2 422.667 15.8666C421.6 12.1333 420.267 10.1333 417.867 9.33331C413.6 7.73331 387.067 7.73331 382.933 9.33331ZM414 11.0666C420.267 11.4666 424.8 21.6 420.667 25.8666C419.467 27.0666 418.933 28 419.6 28C420.133 28 418.667 29.3333 416.4 30.8C414 32.4 412 34 412 34.4C412 36.4 403.467 35.8666 402 33.7333C400.4 31.6 396.667 32.5333 398 34.8C398.533 35.4666 397.867 36 396.8 36C395.333 36 394.8 34.6666 394.933 31.4666C395.067 27.7333 395.6 26.9333 397.6 27.3333C400.933 28 414.133 23.4666 417.333 20.6666C418.8 19.3333 420 17.3333 420 16.2666C420 14.5333 419.6 14.6666 418.267 16.5333C416.667 18.6666 414.267 19.0666 400.4 19.2C386.4 19.3333 384 19.0666 382.8 17.0666C380.267 13.0666 382.4 10.6666 388.133 10.9333C391.067 11.0666 393.733 10.6666 394.267 10.2666C394.667 9.73331 398.8 9.73331 403.2 10.1333C407.733 10.5333 412.533 10.9333 414 11.0666ZM382 18.5333C382.667 20.8 390 25.3333 392.933 25.3333C393.6 25.3333 393.867 27.7333 393.6 30.6666L393.067 35.8666L388.133 33.3333C382 30.2666 378.667 25.4666 378.667 20C378.667 15.6 380.667 14.6666 382 18.5333ZM413.333 21.3333C413.333 21.8666 410 23.0666 406 24C400.267 25.3333 397.6 25.4666 393.333 24.1333C383.467 21.2 385.733 19.8666 399.867 20.1333C407.333 20.2666 413.333 20.8 413.333 21.3333ZM377.333 26C378 25.6 378.8 25.7333 379.2 26.4C379.6 27.0666 379.2 27.6 378.267 27.7333C377.333 27.7333 369.467 30 360.667 32.6666C351.867 35.3333 343.067 38.1333 341.067 38.6666C339.2 39.3333 337.2 39.4666 336.8 38.9333C334.667 36.8 336.667 34.8 342.4 33.3333C345.867 32.4 353.2 30.2666 358.667 28.5333C370 25.0666 375.067 24.2666 375.733 25.7333C376 26.2666 376.8 26.4 377.333 26ZM442.667 28.6666C451.867 31.3333 460.4 33.7333 461.733 34.1333C462.933 34.5333 464 36 464 37.4666C464 40.4 464 40.4 459.067 38.5333C457.067 37.7333 454.4 36.9333 453.333 36.6666C447.467 35.2 423.6 28 423.067 27.4666C422.267 26.6666 423.867 24 425.2 24C425.733 24 433.6 26.1333 442.667 28.6666ZM381.733 32.1333C383.333 33.7333 386.667 35.8666 389.067 36.8L393.333 38.6666V101.2V163.867L396.8 166.533C400.133 169.2 400.4 169.2 403.467 166.933L406.533 164.667L406.667 101.733V38.8L409.733 38C411.333 37.4666 414.933 35.3333 417.6 33.2L422.533 29.3333L430.933 31.8666C435.6 33.3333 444.667 36.1333 451.067 38.1333C462.4 41.6 462.8 42 462.133 45.2C460 56 458.4 74.8 459.2 80.2666C460.4 87.8666 466 94.6666 471.067 94.6666C475.6 94.6666 476.267 96 474.533 101.467C467.2 126 465.067 151.333 467.733 182C472.933 240.533 486.667 391.067 487.333 396.4C488.133 402.667 488 402.8 483.733 404.533C476.533 407.6 447.6 412 424 413.6C407.2 414.8 396.4 414.8 378 413.6C357.2 412.267 326.4 407.733 316 404.667C313.733 404 313.067 404.133 314 404.933C316.533 407.467 333.733 410.933 359.333 414C378 416.267 419.467 416.533 436.667 414.667C462.667 411.6 482.667 407.733 486.4 404.933C487.467 404 488 404.4 488 406.133C488 407.6 488.4 409.867 488.8 411.467C489.333 413.6 488.667 414.533 485.733 415.733C480.533 417.733 471.067 419.6 454.667 422C407.867 428.667 376.8 427.867 327.467 418.667C319.333 417.2 312.533 416 312.267 416C311.6 416 312.667 401.067 315.467 372.667C316.533 361.6 318.267 342.4 319.333 330C324.4 271.2 326.8 244.533 330.133 210C335.6 152.933 334.933 130.667 326.933 104.4L324.533 96.6666L329.733 94.6666C338.8 91.2 340.667 87.3333 340.667 71.6C340.667 64.1333 340.133 54.4 339.467 49.8666C338.4 41.7333 338.4 41.7333 342.133 40.2666C350.267 37.0666 365.467 33.2 366.667 34C367.467 34.4 368 34.1333 368 33.4666C368 32.6666 369.2 32 370.533 32C372 32 373.6 31.3333 374 30.6666C375.333 28.5333 378.533 29.0666 381.733 32.1333ZM336.533 45.6C339.333 58.6666 340.533 73.2 339.467 80.4C338.267 87.8666 333.733 92.6666 326.933 93.8666C316 95.6 262.267 115.333 238.933 126.133C235.067 127.867 231.2 129.333 230.267 129.333C229.333 129.333 228 129.867 227.333 130.4C226.533 131.067 223.2 132.533 219.733 133.867C216.267 135.2 211.2 137.333 208.4 138.667L203.333 141.067L199.467 134.267C197.333 130.4 194.533 125.2 193.333 122.667L190.933 118L197.467 114.267C201.067 112.133 204.533 110.8 205.2 111.333C206.667 112.133 216.4 130.8 215.733 131.333C215.467 131.467 214.133 132.267 212.533 133.067C210.133 134.4 209.467 134.133 208.133 131.067C207.333 129.2 206.267 128 205.867 128.4C205.467 128.8 205.867 130.4 206.667 132C208.267 134.933 206.933 137.2 203.467 137.333C202.8 137.333 202.533 137.6 202.933 138C203.333 138.4 206.533 137.333 210.133 135.733C213.733 134.133 216.933 132.667 217.333 132.667C217.733 132.533 220.133 131.6 222.8 130.4C225.467 129.2 228.8 127.867 230.4 127.467C232 126.933 233.333 126 233.333 125.2C233.333 124.267 222 128 218.533 130.133C218 130.4 217.333 129.733 216.8 128.667C216.4 127.467 217.2 126.133 218.667 125.333C220.133 124.533 221.333 124.4 221.333 124.933C221.333 125.467 221.867 125.333 222.4 124.533C222.933 123.733 227.733 120.8 233.2 118.133C238.533 115.333 242.667 112.8 242.267 112.533C241.867 112.133 236 114.667 229.2 118.267C222.267 121.733 216.267 124.8 215.733 125.067C215.2 125.333 214.4 124 213.867 122.133C213.467 120.267 212.667 118.667 212.133 118.667C211.067 118.667 206.267 109.2 206.933 108.667C208.133 107.733 230.4 93.6 231.467 93.2C232.133 92.9333 241.733 87.3333 252.667 80.6666C275.867 66.9333 296.8 55.2 316.267 45.3333C323.733 41.4666 330.533 37.8666 331.333 37.2C333.733 34.9333 334.4 36.1333 336.533 45.6ZM497.333 52.2666C510.133 59.2 522.8 66.1333 525.333 67.6C527.867 69.0666 533.867 72.6666 538.667 75.3333C543.467 78.1333 549.733 81.7333 552.667 83.3333C558 86.2666 575.333 96.9333 587.067 104.4C590.533 106.667 593.333 109.067 593.333 109.733C593.333 110.4 591.467 114.267 589.2 118.133L585.2 125.333L571.067 118C563.2 114 556.667 110.933 556.4 111.2C555.733 111.733 566.267 117.867 576.4 122.8C583.333 126.133 584.533 127.333 583.333 129.333C582.8 130.133 579.867 129.6 575.733 128C571.867 126.533 567.6 125.733 566.133 126C563.467 126.667 534.133 115.6 535.333 114.533C535.6 114.133 534.8 113.867 533.6 113.733C532.4 113.733 521.467 109.867 509.333 105.333C497.2 100.8 482.8 96 477.333 94.5333C471.867 93.0666 466.267 90.8 464.8 89.4666C459.733 84.4 459.467 73.0666 463.6 48.4L465.6 36.1333L469.867 37.8666C472.133 38.8 484.533 45.3333 497.333 52.2666ZM404.667 93.4666V148H401.067H397.333L397.067 92.9333L396.667 38L396 93.3333L395.333 148.667L394.933 93.8666C394.8 63.7333 394.933 38.8 395.333 38.5333C395.6 38.1333 397.867 38.1333 400.267 38.4L404.667 38.9333V93.4666ZM603.2 114.133C606.667 116 609.333 118.133 609.067 118.667C607.067 124 597.733 140 596.533 140C594.133 140 582.667 134.667 582.667 133.6C582.667 133.067 583.467 131.467 584.533 130C585.467 128.533 588.267 123.6 590.667 118.933C592.933 114.4 595.467 110.667 596 110.667C596.533 110.667 599.867 112.267 603.2 114.133ZM575.2 129.333C578.533 130.667 581.333 132.533 581.333 133.333C581.333 134.267 580.533 134.267 579.067 133.467C577.733 132.8 574.4 131.2 571.733 130C566.8 128 565.333 126.667 567.867 126.667C568.533 126.667 571.867 127.867 575.2 129.333ZM397.067 156.933C397.333 149.733 397.467 149.333 400.667 149.333C403.867 149.333 404 149.733 404 156.533C404 164 402.8 165.467 397.867 164.8C395.733 164.533 395.333 163.2 395.2 156.533L395.067 148.667L396 156.667L396.933 164.667L397.067 156.933Z" fill="black"/>
<path d="M398.133 29.5998C398.533 30.1332 399.733 30.6665 400.8 30.6665C401.867 30.6665 402.667 30.1332 402.667 29.5998C402.667 29.0665 401.467 28.5332 400.133 28.5332C398.667 28.5332 397.867 29.0665 398.133 29.5998Z" fill="black"/>
<path d="M592.267 131.2C590.933 134.267 590.4 134.533 587.067 133.2C581.467 131.067 584.533 133.467 590.933 136.267C594.133 137.6 595.733 137.867 594.4 136.933C592.8 135.733 592.533 134.667 593.6 132.933C594.267 131.6 594.667 129.867 594.4 129.067C594.133 128.4 593.2 129.2 592.267 131.2Z" fill="black"/>
</svg>
