<svg width="800" height="436" viewBox="0 0 800 436" fill="none" xmlns="http://www.w3.org/2000/svg">
<path d="M387.333 7.59964C382.267 8.39964 379.2 11.1997 377.333 16.6663C376 20.6663 375.2 21.0663 360.933 25.1996C338.8 31.5996 333.867 33.4663 320.667 40.133C306.133 47.5997 278 62.7997 268 68.6663C264 71.0663 252.267 77.9997 242 83.9997C231.733 90.133 218.933 97.9997 213.6 101.6C208.267 105.066 203.6 108 203.2 108C202.8 108 199.333 110.133 195.333 112.666L188.133 117.2L194 128C197.333 133.866 200 139.2 200 139.866C200 142.666 204 142.133 212.8 138.4C254.533 120.533 322.133 94.6663 323.2 96.2663C323.867 97.0663 329.2 116.8 330.933 124.666C334.533 141.466 331.867 234.133 325.867 294C324.8 304.933 322.133 325.066 320 338.666C314.933 371.333 312.133 394.4 311.733 406.666L311.333 416.666L320.533 418.933C342.8 424.533 368.933 427.333 400 427.333C430.267 427.333 441.067 426.4 470 421.066C487.333 418 490.4 416.4 489.867 411.066C489.6 409.066 488.8 400.4 488 392C487.067 383.6 484.133 361.6 481.333 343.333C474.933 302 474.133 294 470.533 239.333C467.067 186 466.533 140.933 469.2 126.666C470.933 117.066 476.933 95.9997 478 95.9997C481.6 95.9997 562.933 127.2 580.667 135.466C591.6 140.533 597.867 142.666 598.8 141.733C600 140.4 612 117.866 612 116.933C612 116.533 607.6 113.733 602.4 110.666C597.067 107.6 588.533 102.533 583.333 99.1996C569.6 90.533 538.4 71.8663 525.333 64.6663C474.133 35.9997 463.6 31.1997 437.333 24.6663C426.4 21.8663 423.2 19.8663 422.267 14.7997C421.733 12.6663 420.133 10.133 418.533 9.33298C415.6 7.59964 393.867 6.39964 387.333 7.59964ZM413.2 11.1996C414 11.733 414.667 11.5997 414.667 10.7997C414.667 9.99965 415.6 9.73299 416.667 10.2663C417.867 10.6663 418.4 11.333 418.133 11.733C417.733 12.133 418.267 13.0663 419.467 13.9997C420.667 14.7997 421.6 17.5997 421.733 20.2663C421.867 23.9997 420.933 25.8663 417.2 29.1996C412.933 33.1996 404.267 36.7996 402.8 35.1996C402.4 34.7996 402 32.3997 402 29.9997C401.867 26.2663 402.267 25.333 404.133 25.333C408.267 25.333 417.333 21.1997 418.667 18.533C420.4 15.4663 420.267 13.333 418.667 16.133C417.6 17.9997 414.933 18.2663 400.533 17.9997C384.4 17.733 381.467 17.0663 381.333 13.1996C381.333 10.3996 409.067 8.66631 413.2 11.1996ZM398.667 20.2663C413.333 19.9997 413.867 20.133 410.133 22.133C405.733 24.533 394.8 24.7997 390.667 22.6663C386.533 20.3997 386 21.8663 390 24.533C392.267 25.9997 393.333 27.8663 393.333 30.6663C393.333 36.133 390.667 35.733 384 29.5996C380.133 25.733 378.667 23.333 378.667 20.3997C378.667 15.1997 380.133 13.9996 381.867 17.5996C383.2 20.3996 384.133 20.533 398.667 20.2663ZM463.733 36.933C464.133 39.4663 462.8 39.1996 444.133 33.4663C423.467 27.0663 420.933 25.8663 423.733 24.133C424.8 23.5997 433.6 25.4663 444.4 28.6663C460 33.333 463.467 34.7996 463.733 36.933ZM378.267 25.8663C377.867 27.1997 372.4 29.0663 350.133 35.4663C341.467 37.8663 337.867 38.3996 336.8 37.333C334.667 35.1996 337.2 33.9997 352.667 29.8663C360 27.8663 366.933 25.733 368 25.1996C370.667 23.5996 378.8 24.2663 378.267 25.8663ZM396.533 26.133C397.733 26.533 398.4 27.4663 398 27.9997C397.6 28.6663 397.867 29.4663 398.533 29.9997C399.467 30.3997 399.467 31.9997 398.667 33.9997C397.333 37.5997 398.667 39.1997 402.4 38.133C404.533 37.4663 404.667 40.6663 404.667 91.8663V146.4L401.067 147.066L397.333 147.6L397.2 92.133C397.067 61.5997 397.067 36.2663 397.2 35.5996C397.2 35.0663 396.667 34.6663 395.867 34.6663C394.933 34.6663 394.667 33.4663 395.067 31.733C395.6 30.133 395.2 27.9996 394.4 27.0663C392.8 25.1996 393.333 24.933 396.533 26.133ZM382 30.7997C382 31.8663 384.533 33.8663 387.6 35.333L393.2 37.9997L393.333 100.8V163.733L396.8 166C399.867 168 400.4 168 403.467 166L406.667 164V100.8V37.5996L410.133 36.7997C415.333 35.4663 420.267 31.8663 419.467 29.8663C419.067 28.7997 419.733 28.3997 421.067 28.6663C426.667 29.8663 460.8 40.3996 461.733 41.1996C462.267 41.733 461.733 48.133 460.533 55.4663C458.133 70.7996 458.667 81.5997 462.4 88.7997C463.867 91.733 466.267 97.8663 467.733 102.666C470.533 111.333 470.533 111.333 468 122.266C466.533 128.266 465.733 134.266 466.133 135.6C466.8 137.466 466.667 137.6 465.6 136.133C463.467 133.066 457.733 162.133 455.333 189.333C453.733 206.666 455.733 198.8 458.667 176C464.133 133.066 464.8 133.066 465.6 175.333C466.133 195.866 467.467 226.4 468.667 243.333C470.4 266.4 470.8 284.666 470.4 317.333C470 341.2 470.133 355.6 470.8 349.333C471.333 343.066 471.867 328.133 472 316C472.267 296.533 472.533 295.2 473.467 304C474 309.466 476.267 325.333 478.533 339.333C483.2 368.266 486.667 394.4 486.667 399.866C486.667 403.466 486.133 403.866 477.733 405.866C463.867 409.2 444 411.866 422.133 413.333C392.667 415.466 350.933 412.266 322.267 405.733L313.2 403.733L313.867 398.933C314.267 396.133 315.2 388.266 316 381.333C316.933 374.4 319.2 357.6 321.333 344C323.467 330.4 326 311.466 327.2 302C330.267 276.8 334.8 197.066 335.067 165.066C335.333 140.666 335.467 138.4 336.933 144.533C339.2 154.4 342.667 178.666 342.8 185.466C342.933 188.666 343.467 192.8 344 194.666C344.933 197.733 345.067 197.466 345.2 193.066C345.467 182.8 340.8 154.4 335.467 133.333L329.867 111.333L333.333 101.333C335.333 95.8663 337.867 89.0663 339.067 86.3997C341.733 80.533 341.867 65.5997 339.467 50.6663L337.867 40.6663L355.867 35.5996C365.733 32.7996 374.667 29.9996 375.733 29.4663C378.667 27.8663 382 28.533 382 30.7997ZM336.8 45.4663C338 50.933 339.067 61.733 339.067 69.5997C339.333 87.733 337.867 90.2663 325.2 93.4663C320.533 94.6663 305.6 99.5997 292.133 104.533C269.6 112.666 262.933 115.2 255.067 118.933C253.467 119.733 251.2 120 250.133 119.6C248.933 119.066 248.133 119.333 248.4 120.133C248.667 121.2 230 129.6 215.333 134.933C213.2 135.733 210 137.333 208.4 138.4C206.8 139.333 204.667 140 203.867 139.733C202 139.066 219.067 130.666 227.467 128C232.933 126.266 236.4 124 233.6 124C232.8 124 228.933 125.2 225.2 126.666C220.4 128.533 217.867 129.066 216.933 128.133C215.2 126.4 214.533 126.933 226 121.2C242.533 112.8 244.267 111.866 243.6 111.066C243.2 110.666 236.533 113.733 228.8 117.866C215.2 125.066 214.8 125.2 213.867 122.266C213.333 120.666 211.467 117.066 209.733 114.133L206.4 109.066L209.467 106.8C213.867 103.6 252.933 79.733 260 75.9997C263.333 74.133 266.933 71.9996 268 71.1996C269.067 70.3996 274.267 67.333 279.333 64.6663C284.533 61.8663 291.333 58.133 294.667 56.2663C298 54.533 307.6 49.333 316 45.0663C324.4 40.6663 331.867 36.533 332.533 35.8663C334.267 34.2663 334.4 34.2663 336.8 45.4663ZM492.667 49.0663C532 69.9996 591.733 105.6 592.933 108.8C593.333 109.733 592.4 112.266 591.067 114.266C589.733 116.266 587.867 119.733 586.933 121.866C585.733 124.533 584.8 125.2 583.6 124.266C580.4 121.6 557.2 110.4 556.533 111.066C556.133 111.466 562.133 114.933 569.867 118.8C577.6 122.8 584 126.666 584 127.6C584 129.466 579.867 130 578 128.266C575.867 126.533 566.533 123.733 565.733 124.533C565.333 124.933 566.133 125.6 567.467 126.133C568.8 126.533 571.2 127.466 572.667 128C574.133 128.666 578.267 130.4 581.867 131.866C585.467 133.466 588.667 134.4 589.067 134C589.467 133.6 589.2 133.333 588.533 133.333C587.867 133.333 586.533 132.8 585.6 132.133C584.267 131.333 584.667 129.733 587.467 124.533C589.467 120.933 591.733 116.8 592.533 115.333C595.733 109.466 595.733 109.466 602.4 112.933C605.867 114.933 608.8 116.533 609.067 116.8C609.333 116.933 608.267 119.333 606.8 122.133C605.333 125.066 602.933 130.133 601.333 133.6C599.6 137.2 597.867 140 597.2 140C596.533 140 592.933 138.533 589.067 136.666C585.2 134.933 579.6 132.533 576.667 131.6C573.733 130.533 560.533 125.2 547.333 119.6C534.133 114.133 520.933 108.933 518 108C515.067 107.066 512.133 105.866 511.333 105.333C509.867 104.4 480 94.533 471.067 92.133C460 89.0663 458.267 77.8663 464 44.933C465.467 36.6663 465.867 35.9997 468.533 36.7997C470 37.1997 480.933 42.7996 492.667 49.0663ZM395.6 120.4C395.467 135.2 395.333 122.666 395.333 92.6663C395.333 62.533 395.467 50.533 395.6 65.733C395.867 81.0663 395.867 105.6 395.6 120.4ZM332.4 98.933C329.467 108.933 329.067 109.2 327.2 102.533C324.8 94.933 324.667 95.4663 329.733 93.733C332 93.0663 334.133 92.2663 334.267 92.133C334.4 92.133 333.6 95.1996 332.4 98.933ZM473.333 94.6663C475.6 94.6663 475.6 94.933 473.6 101.466L471.333 108.266L469.867 104.533C469.067 102.4 468 98.933 467.467 96.7997C466.667 93.5997 466.933 93.1997 468.667 93.8663C469.867 94.2663 472 94.6663 473.333 94.6663ZM211.333 121.066C214.133 126.4 216.133 130.933 215.867 131.2C213.733 133.066 202 137.2 201.333 136.4C200.8 135.733 198.133 131.333 195.467 126.533L190.667 117.6L197.6 113.6C201.467 111.466 205.067 110 205.467 110.4C206 110.933 208.533 115.733 211.333 121.066ZM395.6 159.6C395.333 161.733 395.067 160 395.067 156C395.067 152 395.333 150.266 395.6 152.266C395.867 154.4 395.867 157.6 395.6 159.6ZM404.267 156.533C404.4 160.533 404.267 163.466 403.6 163.066C403.067 162.8 402.267 163.466 401.867 164.533C400.267 168.666 397.333 163.2 397.333 156.133C397.333 149.866 397.6 149.333 400.533 149.333C403.467 149.333 403.733 150 404.267 156.533ZM321.867 407.333C348.667 415.466 414.933 418 452.267 412.266C463.067 410.533 475.2 408.4 479.333 407.333C483.467 406.266 487.067 405.333 487.333 405.333C487.733 405.333 488 407.333 488 409.866C488 412.666 487.2 414.666 485.867 415.2C478.533 418 452.4 422.266 427.333 424.666C416 425.866 383.067 425.733 370.933 424.666C350.933 422.8 317.067 416.933 313.867 414.933C312.267 414 312.933 405.333 314.533 405.333C314.933 405.333 318.267 406.266 321.867 407.333Z" fill="black"/>
<path d="M328.8 305.6C328.266 312.4 328.4 327.6 329.066 339.333L330.266 360.667L330.4 326.933C330.533 308.533 330.4 293.333 330.133 293.333C329.866 293.333 329.2 298.933 328.8 305.6Z" fill="black"/>
<path d="M593.067 128.666C592.667 130.133 591.867 132.533 591.333 134C590.533 136.266 590.667 136.266 592.533 133.6C593.867 132 594.667 129.6 594.4 128.266C594 126.266 593.733 126.4 593.067 128.666Z" fill="black"/>
<path d="M593.333 136.533C593.333 136.8 594.267 137.467 595.467 137.867C596.533 138.267 597.067 138.133 596.667 137.333C595.867 136 593.333 135.467 593.333 136.533Z" fill="black"/>
<path d="M205.333 127.467C205.333 128.133 206.267 130 207.333 131.467C208.4 132.8 209.333 133.333 209.333 132.533C209.333 131.867 208.4 130 207.333 128.533C206.267 127.2 205.333 126.667 205.333 127.467Z" fill="black"/>
</svg>
